<mxfile host="Electron" agent="Mozilla/5.0 (Windows NT 10.0; Win64; x64) AppleWebKit/537.36 (KHTML, like Gecko) draw.io/27.0.9 Chrome/134.0.6998.205 Electron/35.4.0 Safari/537.36" version="27.0.9">
  <diagram name="第 1 页" id="Vq4NFNa0_FkRNS-fq95_">
    <mxGraphModel dx="3046" dy="2180" grid="0" gridSize="10" guides="1" tooltips="1" connect="1" arrows="1" fold="1" page="0" pageScale="1" pageWidth="1000" pageHeight="1000" background="none" math="0" shadow="0">
      <root>
        <mxCell id="0" />
        <mxCell id="1" parent="0" />
        <mxCell id="2mUO1VsIVxacZMf1Uv3O-242" value="" style="rounded=0;whiteSpace=wrap;html=1;" parent="1" vertex="1">
          <mxGeometry x="1122" y="501" width="228" height="500.75" as="geometry" />
        </mxCell>
        <mxCell id="2mUO1VsIVxacZMf1Uv3O-189" value="" style="edgeStyle=orthogonalEdgeStyle;rounded=0;orthogonalLoop=1;jettySize=auto;html=1;" parent="1" source="2mUO1VsIVxacZMf1Uv3O-9" target="2mUO1VsIVxacZMf1Uv3O-188" edge="1">
          <mxGeometry relative="1" as="geometry" />
        </mxCell>
        <mxCell id="2mUO1VsIVxacZMf1Uv3O-9" value="" style="rounded=0;whiteSpace=wrap;html=1;dashed=1;dashPattern=8 8;strokeWidth=2;" parent="1" vertex="1">
          <mxGeometry x="280" y="120" width="240" height="804" as="geometry" />
        </mxCell>
        <mxCell id="2mUO1VsIVxacZMf1Uv3O-105" value="&lt;span style=&quot;font-size: 24px;&quot;&gt;Super 编译过程&lt;/span&gt;" style="html=1;whiteSpace=wrap;fontSize=28;" parent="1" vertex="1">
          <mxGeometry x="280" y="55" width="240" height="50" as="geometry" />
        </mxCell>
        <mxCell id="2mUO1VsIVxacZMf1Uv3O-108" value="" style="edgeStyle=orthogonalEdgeStyle;rounded=0;orthogonalLoop=1;jettySize=auto;html=1;" parent="1" source="2mUO1VsIVxacZMf1Uv3O-106" target="2mUO1VsIVxacZMf1Uv3O-107" edge="1">
          <mxGeometry relative="1" as="geometry" />
        </mxCell>
        <mxCell id="2mUO1VsIVxacZMf1Uv3O-106" value="&lt;span style=&quot;font-size: 24px;&quot;&gt;代码文本&lt;/span&gt;" style="html=1;whiteSpace=wrap;fontSize=28;" parent="1" vertex="1">
          <mxGeometry x="300" y="140" width="200" height="50" as="geometry" />
        </mxCell>
        <mxCell id="2mUO1VsIVxacZMf1Uv3O-112" value="" style="edgeStyle=orthogonalEdgeStyle;rounded=0;orthogonalLoop=1;jettySize=auto;html=1;" parent="1" source="2mUO1VsIVxacZMf1Uv3O-107" target="2mUO1VsIVxacZMf1Uv3O-109" edge="1">
          <mxGeometry relative="1" as="geometry" />
        </mxCell>
        <object label="&lt;span style=&quot;font-size: 24px;&quot;&gt;去除注释&lt;/span&gt;" id="2mUO1VsIVxacZMf1Uv3O-107">
          <mxCell style="html=1;whiteSpace=wrap;fontSize=28;" parent="1" vertex="1">
            <mxGeometry x="300" y="240" width="200" height="50" as="geometry" />
          </mxCell>
        </object>
        <mxCell id="CVecepeYsr_i7JUgzHfF-67" style="edgeStyle=orthogonalEdgeStyle;rounded=0;orthogonalLoop=1;jettySize=auto;html=1;entryX=0;entryY=0.5;entryDx=0;entryDy=0;" parent="1" source="2mUO1VsIVxacZMf1Uv3O-109" target="2mUO1VsIVxacZMf1Uv3O-227" edge="1">
          <mxGeometry relative="1" as="geometry" />
        </mxCell>
        <mxCell id="8J4blaZt_7UuDxUn_A4w-1" value="" style="edgeStyle=orthogonalEdgeStyle;rounded=0;orthogonalLoop=1;jettySize=auto;html=1;" edge="1" parent="1" source="2mUO1VsIVxacZMf1Uv3O-109" target="2mUO1VsIVxacZMf1Uv3O-182">
          <mxGeometry relative="1" as="geometry" />
        </mxCell>
        <mxCell id="2mUO1VsIVxacZMf1Uv3O-109" value="&lt;font style=&quot;font-size: 24px;&quot;&gt;词法分析&lt;/font&gt;" style="html=1;whiteSpace=wrap;fontSize=28;" parent="1" vertex="1">
          <mxGeometry x="300" y="340" width="200" height="50" as="geometry" />
        </mxCell>
        <mxCell id="8J4blaZt_7UuDxUn_A4w-4" value="" style="edgeStyle=orthogonalEdgeStyle;rounded=0;orthogonalLoop=1;jettySize=auto;html=1;" edge="1" parent="1" source="2mUO1VsIVxacZMf1Uv3O-110" target="8J4blaZt_7UuDxUn_A4w-2">
          <mxGeometry relative="1" as="geometry" />
        </mxCell>
        <mxCell id="8J4blaZt_7UuDxUn_A4w-7" style="edgeStyle=orthogonalEdgeStyle;rounded=0;orthogonalLoop=1;jettySize=auto;html=1;entryX=0;entryY=0.5;entryDx=0;entryDy=0;" edge="1" parent="1" source="2mUO1VsIVxacZMf1Uv3O-110" target="2mUO1VsIVxacZMf1Uv3O-23">
          <mxGeometry relative="1" as="geometry" />
        </mxCell>
        <mxCell id="2mUO1VsIVxacZMf1Uv3O-110" value="&lt;span style=&quot;font-size: 24px;&quot;&gt;宏过程&lt;/span&gt;" style="html=1;whiteSpace=wrap;fontSize=28;" parent="1" vertex="1">
          <mxGeometry x="300" y="641" width="200" height="50" as="geometry" />
        </mxCell>
        <mxCell id="2mUO1VsIVxacZMf1Uv3O-173" style="edgeStyle=orthogonalEdgeStyle;rounded=0;orthogonalLoop=1;jettySize=auto;html=1;entryX=1;entryY=0.5;entryDx=0;entryDy=0;" parent="1" source="2mUO1VsIVxacZMf1Uv3O-171" target="2mUO1VsIVxacZMf1Uv3O-172" edge="1">
          <mxGeometry relative="1" as="geometry" />
        </mxCell>
        <mxCell id="2mUO1VsIVxacZMf1Uv3O-179" value="" style="group" parent="1" vertex="1" connectable="0">
          <mxGeometry x="-818" y="718.6300000000001" width="280" height="275.75" as="geometry" />
        </mxCell>
        <mxCell id="2mUO1VsIVxacZMf1Uv3O-172" value="" style="rounded=0;whiteSpace=wrap;html=1;" parent="2mUO1VsIVxacZMf1Uv3O-179" vertex="1">
          <mxGeometry width="280" height="275.75" as="geometry" />
        </mxCell>
        <mxCell id="2mUO1VsIVxacZMf1Uv3O-176" value="" style="edgeStyle=orthogonalEdgeStyle;rounded=0;orthogonalLoop=1;jettySize=auto;html=1;" parent="2mUO1VsIVxacZMf1Uv3O-179" source="2mUO1VsIVxacZMf1Uv3O-174" target="2mUO1VsIVxacZMf1Uv3O-175" edge="1">
          <mxGeometry relative="1" as="geometry" />
        </mxCell>
        <mxCell id="2mUO1VsIVxacZMf1Uv3O-174" value="词法分析" style="html=1;whiteSpace=wrap;fontSize=28;" parent="2mUO1VsIVxacZMf1Uv3O-179" vertex="1">
          <mxGeometry x="20" y="15.75" width="240" height="50" as="geometry" />
        </mxCell>
        <mxCell id="2mUO1VsIVxacZMf1Uv3O-178" value="" style="edgeStyle=orthogonalEdgeStyle;rounded=0;orthogonalLoop=1;jettySize=auto;html=1;" parent="2mUO1VsIVxacZMf1Uv3O-179" source="2mUO1VsIVxacZMf1Uv3O-175" target="2mUO1VsIVxacZMf1Uv3O-177" edge="1">
          <mxGeometry relative="1" as="geometry" />
        </mxCell>
        <mxCell id="2mUO1VsIVxacZMf1Uv3O-175" value="AST" style="html=1;whiteSpace=wrap;fontSize=28;" parent="2mUO1VsIVxacZMf1Uv3O-179" vertex="1">
          <mxGeometry x="20" y="110.75" width="240" height="50" as="geometry" />
        </mxCell>
        <mxCell id="2mUO1VsIVxacZMf1Uv3O-177" value="字节码" style="html=1;whiteSpace=wrap;fontSize=28;" parent="2mUO1VsIVxacZMf1Uv3O-179" vertex="1">
          <mxGeometry x="20" y="205.75" width="240" height="50" as="geometry" />
        </mxCell>
        <mxCell id="2mUO1VsIVxacZMf1Uv3O-43" value="" style="rounded=0;whiteSpace=wrap;html=1;dashed=1;dashPattern=8 8;container=0;" parent="1" vertex="1">
          <mxGeometry x="-498" y="612" width="680" height="315" as="geometry" />
        </mxCell>
        <mxCell id="2mUO1VsIVxacZMf1Uv3O-166" value="" style="edgeStyle=orthogonalEdgeStyle;rounded=0;orthogonalLoop=1;jettySize=auto;html=1;" parent="1" source="2mUO1VsIVxacZMf1Uv3O-100" target="2mUO1VsIVxacZMf1Uv3O-164" edge="1">
          <mxGeometry relative="1" as="geometry" />
        </mxCell>
        <mxCell id="2mUO1VsIVxacZMf1Uv3O-100" value="&lt;span style=&quot;font-size: 24px;&quot;&gt;从外部导入的 SDP 文件&lt;/span&gt;" style="html=1;whiteSpace=wrap;fontSize=28;container=0;" parent="1" vertex="1">
          <mxGeometry x="-478" y="635.75" width="290" height="50" as="geometry" />
        </mxCell>
        <mxCell id="2mUO1VsIVxacZMf1Uv3O-103" value="" style="edgeStyle=orthogonalEdgeStyle;rounded=0;orthogonalLoop=1;jettySize=auto;html=1;" parent="1" source="2mUO1VsIVxacZMf1Uv3O-101" target="2mUO1VsIVxacZMf1Uv3O-102" edge="1">
          <mxGeometry relative="1" as="geometry" />
        </mxCell>
        <mxCell id="2mUO1VsIVxacZMf1Uv3O-101" value="&lt;span style=&quot;font-size: 24px;&quot;&gt;内部的高级宏定义&lt;/span&gt;" style="html=1;whiteSpace=wrap;fontSize=28;container=0;" parent="1" vertex="1">
          <mxGeometry x="-98" y="635.75" width="260" height="50" as="geometry" />
        </mxCell>
        <mxCell id="2mUO1VsIVxacZMf1Uv3O-161" value="" style="edgeStyle=orthogonalEdgeStyle;rounded=0;orthogonalLoop=1;jettySize=auto;html=1;" parent="1" source="2mUO1VsIVxacZMf1Uv3O-102" target="2mUO1VsIVxacZMf1Uv3O-159" edge="1">
          <mxGeometry relative="1" as="geometry" />
        </mxCell>
        <mxCell id="2mUO1VsIVxacZMf1Uv3O-102" value="语法检查" style="html=1;whiteSpace=wrap;fontSize=28;container=0;" parent="1" vertex="1">
          <mxGeometry x="-98" y="732" width="260" height="50" as="geometry" />
        </mxCell>
        <mxCell id="2mUO1VsIVxacZMf1Uv3O-104" style="edgeStyle=orthogonalEdgeStyle;rounded=0;orthogonalLoop=1;jettySize=auto;html=1;exitX=0.5;exitY=1;exitDx=0;exitDy=0;" parent="1" source="2mUO1VsIVxacZMf1Uv3O-101" target="2mUO1VsIVxacZMf1Uv3O-101" edge="1">
          <mxGeometry relative="1" as="geometry" />
        </mxCell>
        <mxCell id="2mUO1VsIVxacZMf1Uv3O-171" value="" style="rounded=1;whiteSpace=wrap;html=1;dashed=1;dashPattern=12 12;strokeColor=light-dark(#424242,#FFFFFF);fillColor=#4D4D4D;" parent="1" vertex="1">
          <mxGeometry x="-488" y="814" width="660" height="85" as="geometry" />
        </mxCell>
        <mxCell id="2mUO1VsIVxacZMf1Uv3O-134" value="存入全局数据" style="html=1;whiteSpace=wrap;fontSize=28;container=0;" parent="1" vertex="1">
          <mxGeometry x="-478" y="832" width="290" height="50" as="geometry" />
        </mxCell>
        <mxCell id="2mUO1VsIVxacZMf1Uv3O-159" value="&lt;span style=&quot;font-size: 24px;&quot;&gt;存入&lt;/span&gt;&lt;span style=&quot;font-size: 24px;&quot;&gt;当前文件数据&lt;/span&gt;" style="html=1;whiteSpace=wrap;fontSize=28;" parent="1" vertex="1">
          <mxGeometry x="-98" y="832" width="260" height="50" as="geometry" />
        </mxCell>
        <mxCell id="2mUO1VsIVxacZMf1Uv3O-167" value="" style="edgeStyle=orthogonalEdgeStyle;rounded=0;orthogonalLoop=1;jettySize=auto;html=1;" parent="1" source="2mUO1VsIVxacZMf1Uv3O-164" target="2mUO1VsIVxacZMf1Uv3O-134" edge="1">
          <mxGeometry relative="1" as="geometry" />
        </mxCell>
        <mxCell id="2mUO1VsIVxacZMf1Uv3O-164" value="语法检查" style="html=1;whiteSpace=wrap;fontSize=28;container=0;" parent="1" vertex="1">
          <mxGeometry x="-478" y="732" width="290" height="50" as="geometry" />
        </mxCell>
        <mxCell id="2mUO1VsIVxacZMf1Uv3O-185" value="" style="edgeStyle=orthogonalEdgeStyle;rounded=0;orthogonalLoop=1;jettySize=auto;html=1;" parent="1" source="2mUO1VsIVxacZMf1Uv3O-182" target="2mUO1VsIVxacZMf1Uv3O-184" edge="1">
          <mxGeometry relative="1" as="geometry" />
        </mxCell>
        <mxCell id="2mUO1VsIVxacZMf1Uv3O-205" style="edgeStyle=orthogonalEdgeStyle;rounded=0;orthogonalLoop=1;jettySize=auto;html=1;entryX=1;entryY=0.5;entryDx=0;entryDy=0;" parent="1" source="2mUO1VsIVxacZMf1Uv3O-182" target="2mUO1VsIVxacZMf1Uv3O-192" edge="1">
          <mxGeometry relative="1" as="geometry">
            <mxPoint x="190" y="650" as="targetPoint" />
          </mxGeometry>
        </mxCell>
        <mxCell id="2mUO1VsIVxacZMf1Uv3O-182" value="AST" style="html=1;whiteSpace=wrap;fontSize=28;" parent="1" vertex="1">
          <mxGeometry x="300" y="439" width="200" height="50" as="geometry" />
        </mxCell>
        <mxCell id="8J4blaZt_7UuDxUn_A4w-3" value="" style="edgeStyle=orthogonalEdgeStyle;rounded=0;orthogonalLoop=1;jettySize=auto;html=1;" edge="1" parent="1" source="2mUO1VsIVxacZMf1Uv3O-184" target="2mUO1VsIVxacZMf1Uv3O-110">
          <mxGeometry relative="1" as="geometry" />
        </mxCell>
        <mxCell id="2mUO1VsIVxacZMf1Uv3O-184" value="AST-LOW" style="html=1;whiteSpace=wrap;fontSize=28;" parent="1" vertex="1">
          <mxGeometry x="300" y="540" width="200" height="50" as="geometry" />
        </mxCell>
        <mxCell id="2mUO1VsIVxacZMf1Uv3O-186" value="LLVM IR" style="html=1;whiteSpace=wrap;fontSize=28;" parent="1" vertex="1">
          <mxGeometry x="300" y="848" width="200" height="50" as="geometry" />
        </mxCell>
        <mxCell id="2mUO1VsIVxacZMf1Uv3O-188" value="LLVM 编译后端" style="html=1;whiteSpace=wrap;fontSize=28;" parent="1" vertex="1">
          <mxGeometry x="280" y="987" width="240" height="50" as="geometry" />
        </mxCell>
        <mxCell id="2mUO1VsIVxacZMf1Uv3O-191" value="" style="group" parent="1" vertex="1" connectable="0">
          <mxGeometry x="-8" y="384" width="190" height="160" as="geometry" />
        </mxCell>
        <mxCell id="2mUO1VsIVxacZMf1Uv3O-192" value="" style="rounded=0;whiteSpace=wrap;html=1;dashed=1;dashPattern=8 8;" parent="2mUO1VsIVxacZMf1Uv3O-191" vertex="1">
          <mxGeometry width="190" height="160" as="geometry" />
        </mxCell>
        <mxCell id="2mUO1VsIVxacZMf1Uv3O-193" value="&lt;span style=&quot;font-size: 24px;&quot;&gt;链接 SPM&lt;/span&gt;" style="html=1;whiteSpace=wrap;fontSize=28;" parent="2mUO1VsIVxacZMf1Uv3O-191" vertex="1">
          <mxGeometry x="19.999999999999773" y="15" width="150" height="50" as="geometry" />
        </mxCell>
        <mxCell id="2mUO1VsIVxacZMf1Uv3O-194" value="&lt;span style=&quot;font-size: 24px;&quot;&gt;链接外部&lt;/span&gt;" style="html=1;whiteSpace=wrap;fontSize=28;" parent="2mUO1VsIVxacZMf1Uv3O-191" vertex="1">
          <mxGeometry x="19.999999999999773" y="95" width="150" height="50" as="geometry" />
        </mxCell>
        <mxCell id="2mUO1VsIVxacZMf1Uv3O-196" value="" style="group" parent="1" vertex="1" connectable="0">
          <mxGeometry x="-710" y="-280" width="950" height="460" as="geometry" />
        </mxCell>
        <mxCell id="2mUO1VsIVxacZMf1Uv3O-122" value="" style="edgeStyle=orthogonalEdgeStyle;rounded=0;orthogonalLoop=1;jettySize=auto;html=1;" parent="2mUO1VsIVxacZMf1Uv3O-196" source="2mUO1VsIVxacZMf1Uv3O-118" edge="1">
          <mxGeometry relative="1" as="geometry">
            <mxPoint x="280" y="95" as="targetPoint" />
          </mxGeometry>
        </mxCell>
        <mxCell id="2mUO1VsIVxacZMf1Uv3O-133" value="" style="edgeStyle=orthogonalEdgeStyle;rounded=0;orthogonalLoop=1;jettySize=auto;html=1;" parent="2mUO1VsIVxacZMf1Uv3O-196" source="2mUO1VsIVxacZMf1Uv3O-119" edge="1">
          <mxGeometry relative="1" as="geometry">
            <mxPoint x="600" y="180" as="targetPoint" />
          </mxGeometry>
        </mxCell>
        <mxCell id="2mUO1VsIVxacZMf1Uv3O-127" value="" style="group" parent="2mUO1VsIVxacZMf1Uv3O-196" vertex="1" connectable="0">
          <mxGeometry x="320" y="130" width="270" height="330" as="geometry" />
        </mxCell>
        <mxCell id="2mUO1VsIVxacZMf1Uv3O-128" value="" style="rounded=0;whiteSpace=wrap;html=1;strokeColor=default;dashed=1;dashPattern=8 8;" parent="2mUO1VsIVxacZMf1Uv3O-127" vertex="1">
          <mxGeometry width="270" height="330" as="geometry" />
        </mxCell>
        <mxCell id="2mUO1VsIVxacZMf1Uv3O-129" value="文件路径" style="html=1;whiteSpace=wrap;fontSize=28;" parent="2mUO1VsIVxacZMf1Uv3O-127" vertex="1">
          <mxGeometry x="20" y="20" width="230" height="50" as="geometry" />
        </mxCell>
        <mxCell id="2mUO1VsIVxacZMf1Uv3O-130" value="模块名" style="html=1;whiteSpace=wrap;fontSize=28;" parent="2mUO1VsIVxacZMf1Uv3O-127" vertex="1">
          <mxGeometry x="20" y="100" width="230" height="50" as="geometry" />
        </mxCell>
        <mxCell id="2mUO1VsIVxacZMf1Uv3O-131" value="导出变量列表" style="html=1;whiteSpace=wrap;fontSize=28;" parent="2mUO1VsIVxacZMf1Uv3O-127" vertex="1">
          <mxGeometry x="20" y="180" width="230" height="50" as="geometry" />
        </mxCell>
        <mxCell id="2mUO1VsIVxacZMf1Uv3O-132" value="导出功能列表" style="html=1;whiteSpace=wrap;fontSize=28;" parent="2mUO1VsIVxacZMf1Uv3O-127" vertex="1">
          <mxGeometry x="20" y="260" width="230" height="50" as="geometry" />
        </mxCell>
        <mxCell id="2mUO1VsIVxacZMf1Uv3O-74" value="" style="rounded=0;whiteSpace=wrap;html=1;container=0;" parent="2mUO1VsIVxacZMf1Uv3O-196" vertex="1">
          <mxGeometry x="690" y="50" width="260" height="180" as="geometry" />
        </mxCell>
        <mxCell id="2mUO1VsIVxacZMf1Uv3O-99" value="&lt;span style=&quot;font-size: 30px;&quot;&gt;编译时全局数据&lt;/span&gt;" style="html=1;whiteSpace=wrap;fontSize=28;container=0;" parent="2mUO1VsIVxacZMf1Uv3O-196" vertex="1">
          <mxGeometry x="690" width="260" height="50" as="geometry" />
        </mxCell>
        <mxCell id="2mUO1VsIVxacZMf1Uv3O-118" value="SDP" style="html=1;whiteSpace=wrap;fontSize=28;container=0;" parent="2mUO1VsIVxacZMf1Uv3O-196" vertex="1">
          <mxGeometry x="710" y="70" width="220" height="50" as="geometry" />
        </mxCell>
        <mxCell id="2mUO1VsIVxacZMf1Uv3O-119" value="SPM" style="html=1;whiteSpace=wrap;fontSize=28;container=0;" parent="2mUO1VsIVxacZMf1Uv3O-196" vertex="1">
          <mxGeometry x="710" y="150" width="220" height="60" as="geometry" />
        </mxCell>
        <mxCell id="2mUO1VsIVxacZMf1Uv3O-145" value="" style="group" parent="2mUO1VsIVxacZMf1Uv3O-196" vertex="1" connectable="0">
          <mxGeometry y="50" width="270" height="250" as="geometry" />
        </mxCell>
        <mxCell id="2mUO1VsIVxacZMf1Uv3O-121" value="" style="rounded=0;whiteSpace=wrap;html=1;strokeColor=default;dashed=1;dashPattern=8 8;" parent="2mUO1VsIVxacZMf1Uv3O-145" vertex="1">
          <mxGeometry width="270" height="250" as="geometry" />
        </mxCell>
        <mxCell id="2mUO1VsIVxacZMf1Uv3O-120" value="文件路径" style="html=1;whiteSpace=wrap;fontSize=28;" parent="2mUO1VsIVxacZMf1Uv3O-145" vertex="1">
          <mxGeometry x="20" y="20" width="230" height="50" as="geometry" />
        </mxCell>
        <mxCell id="2mUO1VsIVxacZMf1Uv3O-123" value="前缀" style="html=1;whiteSpace=wrap;fontSize=28;" parent="2mUO1VsIVxacZMf1Uv3O-145" vertex="1">
          <mxGeometry x="20" y="100" width="230" height="50" as="geometry" />
        </mxCell>
        <mxCell id="2mUO1VsIVxacZMf1Uv3O-125" value="导出功能列表" style="html=1;whiteSpace=wrap;fontSize=28;" parent="2mUO1VsIVxacZMf1Uv3O-145" vertex="1">
          <mxGeometry x="20" y="180" width="230" height="50" as="geometry" />
        </mxCell>
        <mxCell id="2mUO1VsIVxacZMf1Uv3O-197" value="" style="group" parent="1" vertex="1" connectable="0">
          <mxGeometry x="300" y="-310" width="650" height="260" as="geometry" />
        </mxCell>
        <mxCell id="2mUO1VsIVxacZMf1Uv3O-139" value="" style="rounded=0;whiteSpace=wrap;html=1;container=0;" parent="2mUO1VsIVxacZMf1Uv3O-197" vertex="1">
          <mxGeometry x="390" y="90" width="260" height="170" as="geometry" />
        </mxCell>
        <mxCell id="2mUO1VsIVxacZMf1Uv3O-140" value="&lt;span style=&quot;font-size: 30px;&quot;&gt;编译时单文件数据&lt;/span&gt;" style="html=1;whiteSpace=wrap;fontSize=28;container=0;" parent="2mUO1VsIVxacZMf1Uv3O-197" vertex="1">
          <mxGeometry x="390" y="40" width="260" height="50" as="geometry" />
        </mxCell>
        <mxCell id="2mUO1VsIVxacZMf1Uv3O-157" value="" style="edgeStyle=orthogonalEdgeStyle;rounded=0;orthogonalLoop=1;jettySize=auto;html=1;entryX=0.5;entryY=1;entryDx=0;entryDy=0;entryPerimeter=0;" parent="2mUO1VsIVxacZMf1Uv3O-197" source="2mUO1VsIVxacZMf1Uv3O-143" target="2mUO1VsIVxacZMf1Uv3O-155" edge="1">
          <mxGeometry relative="1" as="geometry" />
        </mxCell>
        <mxCell id="2mUO1VsIVxacZMf1Uv3O-143" value="宏" style="html=1;whiteSpace=wrap;fontSize=28;" parent="2mUO1VsIVxacZMf1Uv3O-197" vertex="1">
          <mxGeometry x="410" y="110" width="220" height="50" as="geometry" />
        </mxCell>
        <mxCell id="2mUO1VsIVxacZMf1Uv3O-152" value="" style="edgeStyle=orthogonalEdgeStyle;rounded=0;orthogonalLoop=1;jettySize=auto;html=1;entryX=1;entryY=0.5;entryDx=0;entryDy=0;" parent="2mUO1VsIVxacZMf1Uv3O-197" source="2mUO1VsIVxacZMf1Uv3O-144" target="2mUO1VsIVxacZMf1Uv3O-147" edge="1">
          <mxGeometry relative="1" as="geometry" />
        </mxCell>
        <mxCell id="2mUO1VsIVxacZMf1Uv3O-144" value="高级宏" style="html=1;whiteSpace=wrap;fontSize=28;" parent="2mUO1VsIVxacZMf1Uv3O-197" vertex="1">
          <mxGeometry x="410" y="190" width="220" height="50" as="geometry" />
        </mxCell>
        <mxCell id="2mUO1VsIVxacZMf1Uv3O-153" value="" style="group" parent="2mUO1VsIVxacZMf1Uv3O-197" vertex="1" connectable="0">
          <mxGeometry y="170" width="270" height="90" as="geometry" />
        </mxCell>
        <mxCell id="2mUO1VsIVxacZMf1Uv3O-147" value="" style="rounded=0;whiteSpace=wrap;html=1;strokeColor=default;dashed=1;dashPattern=8 8;container=0;" parent="2mUO1VsIVxacZMf1Uv3O-153" vertex="1">
          <mxGeometry width="270" height="90" as="geometry" />
        </mxCell>
        <mxCell id="2mUO1VsIVxacZMf1Uv3O-148" value="功能列表" style="html=1;whiteSpace=wrap;fontSize=28;container=0;" parent="2mUO1VsIVxacZMf1Uv3O-153" vertex="1">
          <mxGeometry x="20" y="20" width="230" height="50" as="geometry" />
        </mxCell>
        <mxCell id="2mUO1VsIVxacZMf1Uv3O-154" value="" style="group" parent="2mUO1VsIVxacZMf1Uv3O-197" vertex="1" connectable="0">
          <mxGeometry width="270" height="90" as="geometry" />
        </mxCell>
        <mxCell id="2mUO1VsIVxacZMf1Uv3O-155" value="" style="rounded=0;whiteSpace=wrap;html=1;strokeColor=default;dashed=1;dashPattern=8 8;container=0;" parent="2mUO1VsIVxacZMf1Uv3O-154" vertex="1">
          <mxGeometry width="270" height="90" as="geometry" />
        </mxCell>
        <mxCell id="2mUO1VsIVxacZMf1Uv3O-156" value="宏列表" style="html=1;whiteSpace=wrap;fontSize=28;container=0;" parent="2mUO1VsIVxacZMf1Uv3O-154" vertex="1">
          <mxGeometry x="20" y="20" width="230" height="50" as="geometry" />
        </mxCell>
        <mxCell id="2mUO1VsIVxacZMf1Uv3O-225" value="" style="group" parent="1" vertex="1" connectable="0">
          <mxGeometry x="642" y="620" width="250" height="381.25" as="geometry" />
        </mxCell>
        <mxCell id="2mUO1VsIVxacZMf1Uv3O-23" value="" style="rounded=0;whiteSpace=wrap;html=1;dashed=1;dashPattern=8 8;" parent="2mUO1VsIVxacZMf1Uv3O-225" vertex="1">
          <mxGeometry width="250" height="381.25" as="geometry" />
        </mxCell>
        <mxCell id="2mUO1VsIVxacZMf1Uv3O-218" value="" style="edgeStyle=orthogonalEdgeStyle;rounded=0;orthogonalLoop=1;jettySize=auto;html=1;" parent="2mUO1VsIVxacZMf1Uv3O-225" source="2mUO1VsIVxacZMf1Uv3O-116" target="2mUO1VsIVxacZMf1Uv3O-217" edge="1">
          <mxGeometry relative="1" as="geometry" />
        </mxCell>
        <mxCell id="2mUO1VsIVxacZMf1Uv3O-116" value="&lt;span style=&quot;font-size: 24px;&quot;&gt;语法检查&lt;/span&gt;" style="html=1;whiteSpace=wrap;fontSize=28;" parent="2mUO1VsIVxacZMf1Uv3O-225" vertex="1">
          <mxGeometry x="20" y="15" width="210" height="50" as="geometry" />
        </mxCell>
        <mxCell id="2mUO1VsIVxacZMf1Uv3O-223" value="" style="edgeStyle=orthogonalEdgeStyle;rounded=0;orthogonalLoop=1;jettySize=auto;html=1;" parent="2mUO1VsIVxacZMf1Uv3O-225" source="2mUO1VsIVxacZMf1Uv3O-217" target="2mUO1VsIVxacZMf1Uv3O-221" edge="1">
          <mxGeometry relative="1" as="geometry" />
        </mxCell>
        <mxCell id="2mUO1VsIVxacZMf1Uv3O-217" value="&lt;span style=&quot;font-size: 24px;&quot;&gt;词法分析&lt;/span&gt;" style="html=1;whiteSpace=wrap;fontSize=28;" parent="2mUO1VsIVxacZMf1Uv3O-225" vertex="1">
          <mxGeometry x="20" y="112.5" width="210" height="50" as="geometry" />
        </mxCell>
        <mxCell id="2mUO1VsIVxacZMf1Uv3O-219" value="&lt;span style=&quot;font-size: 24px;&quot;&gt;存入&lt;/span&gt;&lt;span style=&quot;font-size: 24px;&quot;&gt;当前文件数据&lt;/span&gt;" style="html=1;whiteSpace=wrap;fontSize=28;" parent="2mUO1VsIVxacZMf1Uv3O-225" vertex="1">
          <mxGeometry x="20" y="311.25" width="210" height="50" as="geometry" />
        </mxCell>
        <mxCell id="2mUO1VsIVxacZMf1Uv3O-224" value="" style="edgeStyle=orthogonalEdgeStyle;rounded=0;orthogonalLoop=1;jettySize=auto;html=1;" parent="2mUO1VsIVxacZMf1Uv3O-225" source="2mUO1VsIVxacZMf1Uv3O-221" target="2mUO1VsIVxacZMf1Uv3O-219" edge="1">
          <mxGeometry relative="1" as="geometry" />
        </mxCell>
        <mxCell id="2mUO1VsIVxacZMf1Uv3O-221" value="&lt;font style=&quot;font-size: 24px;&quot;&gt;宏列表&lt;/font&gt;" style="html=1;whiteSpace=wrap;fontSize=28;" parent="2mUO1VsIVxacZMf1Uv3O-225" vertex="1">
          <mxGeometry x="20" y="211.25" width="210" height="50" as="geometry" />
        </mxCell>
        <mxCell id="2mUO1VsIVxacZMf1Uv3O-227" value="" style="rounded=0;whiteSpace=wrap;html=1;dashed=1;dashPattern=8 8;" parent="1" vertex="1">
          <mxGeometry x="609" y="-12" width="250" height="392" as="geometry" />
        </mxCell>
        <mxCell id="2mUO1VsIVxacZMf1Uv3O-229" value="&lt;span style=&quot;font-size: 24px;&quot;&gt;提取Token&lt;/span&gt;" style="html=1;whiteSpace=wrap;fontSize=28;" parent="1" vertex="1">
          <mxGeometry x="629" y="3" width="210" height="50" as="geometry" />
        </mxCell>
        <mxCell id="2mUO1VsIVxacZMf1Uv3O-237" value="A词法分析" style="html=1;whiteSpace=wrap;fontSize=28;align=left;" parent="1" vertex="1">
          <mxGeometry x="1135" y="525.75" width="200" height="50" as="geometry" />
        </mxCell>
        <mxCell id="2mUO1VsIVxacZMf1Uv3O-238" value="&lt;font&gt;B宏过程&lt;/font&gt;" style="html=1;whiteSpace=wrap;fontSize=28;align=left;" parent="1" vertex="1">
          <mxGeometry x="1135" y="620.75" width="200" height="50" as="geometry" />
        </mxCell>
        <mxCell id="2mUO1VsIVxacZMf1Uv3O-239" value="&lt;font&gt;C高级宏过程&lt;/font&gt;" style="html=1;whiteSpace=wrap;fontSize=28;align=left;" parent="1" vertex="1">
          <mxGeometry x="1135" y="717.75" width="200" height="50" as="geometry" />
        </mxCell>
        <mxCell id="2mUO1VsIVxacZMf1Uv3O-240" value="&lt;font&gt;D宏展开&lt;/font&gt;" style="html=1;whiteSpace=wrap;fontSize=28;align=left;" parent="1" vertex="1">
          <mxGeometry x="1135" y="825.75" width="200" height="50" as="geometry" />
        </mxCell>
        <mxCell id="2mUO1VsIVxacZMf1Uv3O-241" value="&lt;font&gt;E高级宏展开&lt;/font&gt;" style="html=1;whiteSpace=wrap;fontSize=28;align=left;" parent="1" vertex="1">
          <mxGeometry x="1135" y="926.75" width="200" height="50" as="geometry" />
        </mxCell>
        <mxCell id="CVecepeYsr_i7JUgzHfF-22" value="" style="group" parent="1" vertex="1" connectable="0">
          <mxGeometry x="1029" y="-534" width="445" height="531" as="geometry" />
        </mxCell>
        <mxCell id="CVecepeYsr_i7JUgzHfF-20" value="" style="whiteSpace=wrap;html=1;aspect=fixed;" parent="CVecepeYsr_i7JUgzHfF-22" vertex="1">
          <mxGeometry y="74.57865168539325" width="431.83282031208296" height="431.83282031208296" as="geometry" />
        </mxCell>
        <mxCell id="CVecepeYsr_i7JUgzHfF-21" value="变量名的作用域范围" style="html=1;whiteSpace=wrap;fontSize=28;" parent="CVecepeYsr_i7JUgzHfF-22" vertex="1">
          <mxGeometry width="445" height="74.57865168539325" as="geometry" />
        </mxCell>
        <mxCell id="CVecepeYsr_i7JUgzHfF-23" value="A" style="html=1;whiteSpace=wrap;fontSize=28;" parent="CVecepeYsr_i7JUgzHfF-22" vertex="1">
          <mxGeometry x="21.42592592592574" y="98.6958525345622" width="123.6111111111111" height="40.78341013824885" as="geometry" />
        </mxCell>
        <mxCell id="CVecepeYsr_i7JUgzHfF-24" value="" style="endArrow=none;html=1;rounded=0;entryX=0.5;entryY=1;entryDx=0;entryDy=0;exitX=0.187;exitY=0.931;exitDx=0;exitDy=0;exitPerimeter=0;" parent="CVecepeYsr_i7JUgzHfF-22" source="CVecepeYsr_i7JUgzHfF-20" target="CVecepeYsr_i7JUgzHfF-23" edge="1">
          <mxGeometry width="50" height="50" relative="1" as="geometry">
            <mxPoint x="83.23148148148147" y="371.9447004608295" as="sourcePoint" />
            <mxPoint x="-3.2962962962962963" y="230.0184331797235" as="targetPoint" />
          </mxGeometry>
        </mxCell>
        <mxCell id="CVecepeYsr_i7JUgzHfF-28" value="" style="group;fontSize=28;" parent="CVecepeYsr_i7JUgzHfF-22" vertex="1" connectable="0">
          <mxGeometry x="81.58333333333333" y="177" width="336.22222222222223" height="48.94009216589861" as="geometry" />
        </mxCell>
        <mxCell id="CVecepeYsr_i7JUgzHfF-27" style="edgeStyle=orthogonalEdgeStyle;rounded=0;orthogonalLoop=1;jettySize=auto;html=1;exitX=0;exitY=0.5;exitDx=0;exitDy=0;" parent="CVecepeYsr_i7JUgzHfF-28" source="CVecepeYsr_i7JUgzHfF-26" edge="1">
          <mxGeometry relative="1" as="geometry">
            <mxPoint y="24.470046082949306" as="targetPoint" />
          </mxGeometry>
        </mxCell>
        <mxCell id="CVecepeYsr_i7JUgzHfF-26" value="&lt;font style=&quot;font-size: 28px;&quot;&gt;B&lt;/font&gt;" style="rounded=0;whiteSpace=wrap;html=1;fontSize=11;" parent="CVecepeYsr_i7JUgzHfF-28" vertex="1">
          <mxGeometry x="69.22222222222223" width="267" height="48.94009216589861" as="geometry" />
        </mxCell>
        <mxCell id="CVecepeYsr_i7JUgzHfF-29" value="" style="group" parent="CVecepeYsr_i7JUgzHfF-22" vertex="1" connectable="0">
          <mxGeometry x="83.23148148148147" y="268.35483870967744" width="336.22222222222223" height="48.94009216589861" as="geometry" />
        </mxCell>
        <mxCell id="CVecepeYsr_i7JUgzHfF-30" style="edgeStyle=orthogonalEdgeStyle;rounded=0;orthogonalLoop=1;jettySize=auto;html=1;exitX=0;exitY=0.5;exitDx=0;exitDy=0;" parent="CVecepeYsr_i7JUgzHfF-29" source="CVecepeYsr_i7JUgzHfF-31" edge="1">
          <mxGeometry relative="1" as="geometry">
            <mxPoint y="24.470046082949306" as="targetPoint" />
          </mxGeometry>
        </mxCell>
        <mxCell id="CVecepeYsr_i7JUgzHfF-31" value="&lt;font style=&quot;font-size: 28px;&quot;&gt;C&lt;/font&gt;" style="rounded=0;whiteSpace=wrap;html=1;" parent="CVecepeYsr_i7JUgzHfF-29" vertex="1">
          <mxGeometry x="69.22222222222223" width="267" height="48.94009216589861" as="geometry" />
        </mxCell>
        <mxCell id="CVecepeYsr_i7JUgzHfF-32" value="" style="group" parent="CVecepeYsr_i7JUgzHfF-22" vertex="1" connectable="0">
          <mxGeometry x="83.23148148148147" y="358.07834101382485" width="152.4537037037037" height="48.94009216589861" as="geometry" />
        </mxCell>
        <mxCell id="CVecepeYsr_i7JUgzHfF-33" style="edgeStyle=orthogonalEdgeStyle;rounded=0;orthogonalLoop=1;jettySize=auto;html=1;exitX=0;exitY=0.5;exitDx=0;exitDy=0;" parent="CVecepeYsr_i7JUgzHfF-32" source="CVecepeYsr_i7JUgzHfF-34" edge="1">
          <mxGeometry relative="1" as="geometry">
            <mxPoint y="24.470046082949306" as="targetPoint" />
          </mxGeometry>
        </mxCell>
        <mxCell id="CVecepeYsr_i7JUgzHfF-34" value="&lt;font style=&quot;font-size: 28px;&quot;&gt;D&lt;/font&gt;" style="rounded=0;whiteSpace=wrap;html=1;" parent="CVecepeYsr_i7JUgzHfF-32" vertex="1">
          <mxGeometry x="31.387527233115463" width="121.06617647058822" height="48.94009216589861" as="geometry" />
        </mxCell>
        <mxCell id="CVecepeYsr_i7JUgzHfF-35" value="" style="endArrow=none;html=1;rounded=0;exitX=0.5;exitY=1;exitDx=0;exitDy=0;" parent="CVecepeYsr_i7JUgzHfF-22" source="CVecepeYsr_i7JUgzHfF-34" edge="1">
          <mxGeometry width="50" height="50" relative="1" as="geometry">
            <mxPoint x="182.94444444444443" y="376.02304147465435" as="sourcePoint" />
            <mxPoint x="175" y="491" as="targetPoint" />
          </mxGeometry>
        </mxCell>
        <mxCell id="CVecepeYsr_i7JUgzHfF-36" value="" style="group" parent="CVecepeYsr_i7JUgzHfF-22" vertex="1" connectable="0">
          <mxGeometry x="176.35185185185185" y="424.147465437788" width="152.4537037037037" height="48.94009216589861" as="geometry" />
        </mxCell>
        <mxCell id="CVecepeYsr_i7JUgzHfF-37" style="edgeStyle=orthogonalEdgeStyle;rounded=0;orthogonalLoop=1;jettySize=auto;html=1;exitX=0;exitY=0.5;exitDx=0;exitDy=0;" parent="CVecepeYsr_i7JUgzHfF-36" source="CVecepeYsr_i7JUgzHfF-38" edge="1">
          <mxGeometry relative="1" as="geometry">
            <mxPoint y="24.470046082949306" as="targetPoint" />
          </mxGeometry>
        </mxCell>
        <mxCell id="CVecepeYsr_i7JUgzHfF-38" value="&lt;font style=&quot;font-size: 28px;&quot;&gt;E&lt;/font&gt;" style="rounded=0;whiteSpace=wrap;html=1;" parent="CVecepeYsr_i7JUgzHfF-36" vertex="1">
          <mxGeometry x="31.387527233115463" width="121.06617647058822" height="48.94009216589861" as="geometry" />
        </mxCell>
        <mxCell id="CVecepeYsr_i7JUgzHfF-44" value="变量名" style="swimlane;fontStyle=0;childLayout=stackLayout;horizontal=1;startSize=30;horizontalStack=0;resizeParent=1;resizeParentMax=0;resizeLast=0;collapsible=1;marginBottom=0;whiteSpace=wrap;html=1;fontSize=28;" parent="1" vertex="1">
          <mxGeometry x="1485" y="-474.90999999999997" width="267" height="120" as="geometry">
            <mxRectangle x="1728" y="-327.90999999999997" width="119" height="46" as="alternateBounds" />
          </mxGeometry>
        </mxCell>
        <mxCell id="CVecepeYsr_i7JUgzHfF-45" value="v1" style="text;strokeColor=none;fillColor=none;align=left;verticalAlign=middle;spacingLeft=4;spacingRight=4;overflow=hidden;points=[[0,0.5],[1,0.5]];portConstraint=eastwest;rotatable=0;whiteSpace=wrap;html=1;fontSize=28;" parent="CVecepeYsr_i7JUgzHfF-44" vertex="1">
          <mxGeometry y="30" width="267" height="30" as="geometry" />
        </mxCell>
        <mxCell id="CVecepeYsr_i7JUgzHfF-46" value="v2" style="text;strokeColor=none;fillColor=none;align=left;verticalAlign=middle;spacingLeft=4;spacingRight=4;overflow=hidden;points=[[0,0.5],[1,0.5]];portConstraint=eastwest;rotatable=0;whiteSpace=wrap;html=1;fontSize=28;" parent="CVecepeYsr_i7JUgzHfF-44" vertex="1">
          <mxGeometry y="60" width="267" height="30" as="geometry" />
        </mxCell>
        <mxCell id="CVecepeYsr_i7JUgzHfF-47" value="v3" style="text;strokeColor=none;fillColor=none;align=left;verticalAlign=middle;spacingLeft=4;spacingRight=4;overflow=hidden;points=[[0,0.5],[1,0.5]];portConstraint=eastwest;rotatable=0;whiteSpace=wrap;html=1;fontSize=28;" parent="CVecepeYsr_i7JUgzHfF-44" vertex="1">
          <mxGeometry y="90" width="267" height="30" as="geometry" />
        </mxCell>
        <mxCell id="CVecepeYsr_i7JUgzHfF-48" style="edgeStyle=orthogonalEdgeStyle;rounded=0;orthogonalLoop=1;jettySize=auto;html=1;entryX=0;entryY=0.5;entryDx=0;entryDy=0;" parent="1" source="CVecepeYsr_i7JUgzHfF-23" target="CVecepeYsr_i7JUgzHfF-44" edge="1">
          <mxGeometry relative="1" as="geometry" />
        </mxCell>
        <mxCell id="CVecepeYsr_i7JUgzHfF-50" value="变量名" style="swimlane;fontStyle=0;childLayout=stackLayout;horizontal=1;startSize=30;horizontalStack=0;resizeParent=1;resizeParentMax=0;resizeLast=0;collapsible=1;marginBottom=0;whiteSpace=wrap;html=1;fontSize=28;fixedWidth=0;" parent="1" vertex="1">
          <mxGeometry x="1487" y="-343" width="267" height="90" as="geometry">
            <mxRectangle x="1728" y="-327.90999999999997" width="119" height="46" as="alternateBounds" />
          </mxGeometry>
        </mxCell>
        <mxCell id="CVecepeYsr_i7JUgzHfF-51" value="v1 ;报错 A100010" style="text;strokeColor=none;fillColor=none;align=left;verticalAlign=middle;spacingLeft=4;spacingRight=4;overflow=hidden;points=[[0,0.5],[1,0.5]];portConstraint=eastwest;rotatable=0;whiteSpace=wrap;html=1;fontSize=28;" parent="CVecepeYsr_i7JUgzHfF-50" vertex="1">
          <mxGeometry y="30" width="267" height="30" as="geometry" />
        </mxCell>
        <mxCell id="CVecepeYsr_i7JUgzHfF-52" value="vB2" style="text;strokeColor=none;fillColor=none;align=left;verticalAlign=middle;spacingLeft=4;spacingRight=4;overflow=hidden;points=[[0,0.5],[1,0.5]];portConstraint=eastwest;rotatable=0;whiteSpace=wrap;html=1;fontSize=28;" parent="CVecepeYsr_i7JUgzHfF-50" vertex="1">
          <mxGeometry y="60" width="267" height="30" as="geometry" />
        </mxCell>
        <mxCell id="CVecepeYsr_i7JUgzHfF-54" style="edgeStyle=orthogonalEdgeStyle;rounded=0;orthogonalLoop=1;jettySize=auto;html=1;entryX=-0.011;entryY=0.126;entryDx=0;entryDy=0;entryPerimeter=0;" parent="1" source="CVecepeYsr_i7JUgzHfF-26" target="CVecepeYsr_i7JUgzHfF-50" edge="1">
          <mxGeometry relative="1" as="geometry" />
        </mxCell>
        <mxCell id="CVecepeYsr_i7JUgzHfF-55" value="变量名" style="swimlane;fontStyle=0;childLayout=stackLayout;horizontal=1;startSize=30;horizontalStack=0;resizeParent=1;resizeParentMax=0;resizeLast=0;collapsible=1;marginBottom=0;whiteSpace=wrap;html=1;fontSize=28;fixedWidth=0;" parent="1" vertex="1">
          <mxGeometry x="1497" y="-216.70999999999998" width="267" height="90" as="geometry">
            <mxRectangle x="1728" y="-327.90999999999997" width="119" height="46" as="alternateBounds" />
          </mxGeometry>
        </mxCell>
        <mxCell id="CVecepeYsr_i7JUgzHfF-56" value="vB2" style="text;strokeColor=none;fillColor=none;align=left;verticalAlign=middle;spacingLeft=4;spacingRight=4;overflow=hidden;points=[[0,0.5],[1,0.5]];portConstraint=eastwest;rotatable=0;whiteSpace=wrap;html=1;fontSize=28;" parent="CVecepeYsr_i7JUgzHfF-55" vertex="1">
          <mxGeometry y="30" width="267" height="30" as="geometry" />
        </mxCell>
        <mxCell id="CVecepeYsr_i7JUgzHfF-57" value="vC2" style="text;strokeColor=none;fillColor=none;align=left;verticalAlign=middle;spacingLeft=4;spacingRight=4;overflow=hidden;points=[[0,0.5],[1,0.5]];portConstraint=eastwest;rotatable=0;whiteSpace=wrap;html=1;fontSize=28;" parent="CVecepeYsr_i7JUgzHfF-55" vertex="1">
          <mxGeometry y="60" width="267" height="30" as="geometry" />
        </mxCell>
        <mxCell id="CVecepeYsr_i7JUgzHfF-58" style="edgeStyle=orthogonalEdgeStyle;rounded=0;orthogonalLoop=1;jettySize=auto;html=1;entryX=-0.005;entryY=0.158;entryDx=0;entryDy=0;entryPerimeter=0;" parent="1" source="CVecepeYsr_i7JUgzHfF-31" target="CVecepeYsr_i7JUgzHfF-55" edge="1">
          <mxGeometry relative="1" as="geometry" />
        </mxCell>
        <mxCell id="CVecepeYsr_i7JUgzHfF-59" value="变量名" style="swimlane;fontStyle=0;childLayout=stackLayout;horizontal=1;startSize=30;horizontalStack=0;resizeParent=1;resizeParentMax=0;resizeLast=0;collapsible=1;marginBottom=0;whiteSpace=wrap;html=1;fontSize=28;fixedWidth=0;" parent="1" vertex="1">
          <mxGeometry x="1497" y="-107" width="267" height="120" as="geometry">
            <mxRectangle x="1728" y="-327.90999999999997" width="119" height="46" as="alternateBounds" />
          </mxGeometry>
        </mxCell>
        <mxCell id="CVecepeYsr_i7JUgzHfF-60" value="vB2" style="text;strokeColor=none;fillColor=none;align=left;verticalAlign=middle;spacingLeft=4;spacingRight=4;overflow=hidden;points=[[0,0.5],[1,0.5]];portConstraint=eastwest;rotatable=0;whiteSpace=wrap;html=1;fontSize=28;" parent="CVecepeYsr_i7JUgzHfF-59" vertex="1">
          <mxGeometry y="30" width="267" height="30" as="geometry" />
        </mxCell>
        <mxCell id="CVecepeYsr_i7JUgzHfF-61" value="vC2" style="text;strokeColor=none;fillColor=none;align=left;verticalAlign=middle;spacingLeft=4;spacingRight=4;overflow=hidden;points=[[0,0.5],[1,0.5]];portConstraint=eastwest;rotatable=0;whiteSpace=wrap;html=1;fontSize=28;" parent="CVecepeYsr_i7JUgzHfF-59" vertex="1">
          <mxGeometry y="60" width="267" height="30" as="geometry" />
        </mxCell>
        <mxCell id="CVecepeYsr_i7JUgzHfF-63" value="v1 ;报错 A100010&amp;nbsp;" style="text;strokeColor=none;fillColor=none;align=left;verticalAlign=middle;spacingLeft=4;spacingRight=4;overflow=hidden;points=[[0,0.5],[1,0.5]];portConstraint=eastwest;rotatable=0;whiteSpace=wrap;html=1;fontSize=28;" parent="CVecepeYsr_i7JUgzHfF-59" vertex="1">
          <mxGeometry y="90" width="267" height="30" as="geometry" />
        </mxCell>
        <mxCell id="CVecepeYsr_i7JUgzHfF-62" style="edgeStyle=orthogonalEdgeStyle;rounded=0;orthogonalLoop=1;jettySize=auto;html=1;entryX=0.003;entryY=0.187;entryDx=0;entryDy=0;entryPerimeter=0;" parent="1" source="CVecepeYsr_i7JUgzHfF-38" target="CVecepeYsr_i7JUgzHfF-59" edge="1">
          <mxGeometry relative="1" as="geometry" />
        </mxCell>
        <mxCell id="CVecepeYsr_i7JUgzHfF-66" value="&lt;span style=&quot;font-size: 24px;&quot;&gt;括号识别&lt;/span&gt;" style="html=1;whiteSpace=wrap;fontSize=28;container=0;" parent="1" vertex="1">
          <mxGeometry x="629" y="76" width="210" height="50" as="geometry" />
        </mxCell>
        <mxCell id="CVecepeYsr_i7JUgzHfF-68" value="&lt;span style=&quot;font-size: 24px;&quot;&gt;转Token组&lt;/span&gt;" style="html=1;whiteSpace=wrap;fontSize=28;container=0;" parent="1" vertex="1">
          <mxGeometry x="629" y="159" width="210" height="50" as="geometry" />
        </mxCell>
        <mxCell id="8J4blaZt_7UuDxUn_A4w-5" value="" style="edgeStyle=orthogonalEdgeStyle;rounded=0;orthogonalLoop=1;jettySize=auto;html=1;" edge="1" parent="1" source="8J4blaZt_7UuDxUn_A4w-2" target="2mUO1VsIVxacZMf1Uv3O-186">
          <mxGeometry relative="1" as="geometry" />
        </mxCell>
        <mxCell id="8J4blaZt_7UuDxUn_A4w-6" value="" style="edgeStyle=orthogonalEdgeStyle;rounded=0;orthogonalLoop=1;jettySize=auto;html=1;" edge="1" parent="1" source="8J4blaZt_7UuDxUn_A4w-2" target="2mUO1VsIVxacZMf1Uv3O-43">
          <mxGeometry relative="1" as="geometry" />
        </mxCell>
        <mxCell id="8J4blaZt_7UuDxUn_A4w-2" value="&lt;span style=&quot;font-size: 24px;&quot;&gt;高级宏过程&lt;/span&gt;" style="html=1;whiteSpace=wrap;fontSize=28;" vertex="1" parent="1">
          <mxGeometry x="300" y="744" width="200" height="50" as="geometry" />
        </mxCell>
      </root>
    </mxGraphModel>
  </diagram>
</mxfile>
